<?xml version="1.0" encoding="UTF-8" standalone="no"?>
<!DOCTYPE svg PUBLIC "-//W3C//DTD SVG 1.1//EN"
 "http://www.w3.org/Graphics/SVG/1.1/DTD/svg11.dtd">
<!-- Generated by graphviz version 14.1.1 (20251213.1925)
 -->
<!-- Title: InheritanceTree Pages: 1 -->
<svg width="424pt" height="429pt"
 viewBox="0.00 0.00 424.00 429.00" xmlns="http://www.w3.org/2000/svg" xmlns:xlink="http://www.w3.org/1999/xlink">
<g id="graph0" class="graph" transform="scale(1 1) rotate(0) translate(4 424.5)">
<title>InheritanceTree</title>
<polygon fill="white" stroke="none" points="-4,4 -4,-424.5 420,-424.5 420,4 -4,4"/>
<text xml:space="preserve" text-anchor="middle" x="208" y="-7.2" font-family="Times New Roman,serif" font-size="14.00">simple_process &#45; Inheritance Hierarchy</text>
<!-- SIMPLE_ASYNC_PROCESS -->
<g id="node1" class="node">
<title>SIMPLE_ASYNC_PROCESS</title>
<path fill="none" stroke="black" d="M173.12,-60.5C173.12,-60.5 14.62,-60.5 14.62,-60.5 8.62,-60.5 2.62,-54.5 2.62,-48.5 2.62,-48.5 2.62,-36.5 2.62,-36.5 2.62,-30.5 8.62,-24.5 14.62,-24.5 14.62,-24.5 173.12,-24.5 173.12,-24.5 179.12,-24.5 185.12,-30.5 185.12,-36.5 185.12,-36.5 185.12,-48.5 185.12,-48.5 185.12,-54.5 179.12,-60.5 173.12,-60.5"/>
<text xml:space="preserve" text-anchor="middle" x="93.88" y="-37.45" font-family="Times New Roman,serif" font-size="14.00">SIMPLE_ASYNC_PROCESS</text>
</g>
<!-- SIMPLE_PROCESS -->
<g id="node2" class="node">
<title>SIMPLE_PROCESS</title>
<path fill="none" stroke="black" d="M146.88,-132.5C146.88,-132.5 40.88,-132.5 40.88,-132.5 34.88,-132.5 28.88,-126.5 28.88,-120.5 28.88,-120.5 28.88,-108.5 28.88,-108.5 28.88,-102.5 34.88,-96.5 40.88,-96.5 40.88,-96.5 146.88,-96.5 146.88,-96.5 152.88,-96.5 158.88,-102.5 158.88,-108.5 158.88,-108.5 158.88,-120.5 158.88,-120.5 158.88,-126.5 152.88,-132.5 146.88,-132.5"/>
<text xml:space="preserve" text-anchor="middle" x="93.88" y="-109.45" font-family="Times New Roman,serif" font-size="14.00">SIMPLE_PROCESS</text>
</g>
<!-- SIMPLE_PROCESS_HELPER -->
<g id="node3" class="node">
<title>SIMPLE_PROCESS_HELPER</title>
<path fill="none" stroke="black" d="M175.75,-204.5C175.75,-204.5 12,-204.5 12,-204.5 6,-204.5 0,-198.5 0,-192.5 0,-192.5 0,-180.5 0,-180.5 0,-174.5 6,-168.5 12,-168.5 12,-168.5 175.75,-168.5 175.75,-168.5 181.75,-168.5 187.75,-174.5 187.75,-180.5 187.75,-180.5 187.75,-192.5 187.75,-192.5 187.75,-198.5 181.75,-204.5 175.75,-204.5"/>
<text xml:space="preserve" text-anchor="middle" x="93.88" y="-181.45" font-family="Times New Roman,serif" font-size="14.00">SIMPLE_PROCESS_HELPER</text>
</g>
<!-- LIB_TESTS -->
<g id="node4" class="node">
<title>LIB_TESTS</title>
<path fill="none" stroke="black" d="M124,-348.5C124,-348.5 63.75,-348.5 63.75,-348.5 57.75,-348.5 51.75,-342.5 51.75,-336.5 51.75,-336.5 51.75,-324.5 51.75,-324.5 51.75,-318.5 57.75,-312.5 63.75,-312.5 63.75,-312.5 124,-312.5 124,-312.5 130,-312.5 136,-318.5 136,-324.5 136,-324.5 136,-336.5 136,-336.5 136,-342.5 130,-348.5 124,-348.5"/>
<text xml:space="preserve" text-anchor="middle" x="93.88" y="-325.45" font-family="Times New Roman,serif" font-size="14.00">LIB_TESTS</text>
</g>
<!-- TEST_SET_BASE -->
<g id="node5" class="node">
<title>TEST_SET_BASE</title>
<path fill="none" stroke="black" d="M404,-312.5C404,-312.5 307.75,-312.5 307.75,-312.5 301.75,-312.5 295.75,-306.5 295.75,-300.5 295.75,-300.5 295.75,-288.5 295.75,-288.5 295.75,-282.5 301.75,-276.5 307.75,-276.5 307.75,-276.5 404,-276.5 404,-276.5 410,-276.5 416,-282.5 416,-288.5 416,-288.5 416,-300.5 416,-300.5 416,-306.5 410,-312.5 404,-312.5"/>
<text xml:space="preserve" text-anchor="middle" x="355.88" y="-289.45" font-family="Times New Roman,serif" font-size="14.00">TEST_SET_BASE</text>
</g>
<!-- LIB_TESTS&#45;&gt;TEST_SET_BASE -->
<g id="edge1" class="edge">
<title>LIB_TESTS&#45;&gt;TEST_SET_BASE</title>
<path fill="none" stroke="black" d="M94,-312.01C94,-305.84 94,-300.5 94,-300.5 94,-300.5 283.95,-300.5 283.95,-300.5"/>
<polygon fill="none" stroke="black" points="283.95,-304 293.95,-300.5 283.95,-297 283.95,-304"/>
</g>
<!-- TEST_APP -->
<g id="node6" class="node">
<title>TEST_APP</title>
<path fill="none" stroke="black" d="M121.75,-420.5C121.75,-420.5 66,-420.5 66,-420.5 60,-420.5 54,-414.5 54,-408.5 54,-408.5 54,-396.5 54,-396.5 54,-390.5 60,-384.5 66,-384.5 66,-384.5 121.75,-384.5 121.75,-384.5 127.75,-384.5 133.75,-390.5 133.75,-396.5 133.75,-396.5 133.75,-408.5 133.75,-408.5 133.75,-414.5 127.75,-420.5 121.75,-420.5"/>
<text xml:space="preserve" text-anchor="middle" x="93.88" y="-397.45" font-family="Times New Roman,serif" font-size="14.00">TEST_APP</text>
</g>
<!-- TEST_SIMPLE_PROCESS -->
<g id="node7" class="node">
<title>TEST_SIMPLE_PROCESS</title>
<path fill="none" stroke="black" d="M166.38,-276.5C166.38,-276.5 21.38,-276.5 21.38,-276.5 15.38,-276.5 9.38,-270.5 9.38,-264.5 9.38,-264.5 9.38,-252.5 9.38,-252.5 9.38,-246.5 15.38,-240.5 21.38,-240.5 21.38,-240.5 166.38,-240.5 166.38,-240.5 172.38,-240.5 178.38,-246.5 178.38,-252.5 178.38,-252.5 178.38,-264.5 178.38,-264.5 178.38,-270.5 172.38,-276.5 166.38,-276.5"/>
<text xml:space="preserve" text-anchor="middle" x="93.88" y="-253.45" font-family="Times New Roman,serif" font-size="14.00">TEST_SIMPLE_PROCESS</text>
</g>
<!-- TEST_SIMPLE_PROCESS&#45;&gt;TEST_SET_BASE -->
<g id="edge2" class="edge">
<title>TEST_SIMPLE_PROCESS&#45;&gt;TEST_SET_BASE</title>
<path fill="none" stroke="black" d="M157,-276.99C157,-283.16 157,-288.5 157,-288.5 157,-288.5 283.88,-288.5 283.88,-288.5"/>
<polygon fill="none" stroke="black" points="283.88,-292 293.88,-288.5 283.88,-285 283.88,-292"/>
</g>
</g>
</svg>
