<?xml version="1.0" encoding="UTF-8" standalone="no"?>
<!DOCTYPE svg PUBLIC "-//W3C//DTD SVG 1.1//EN"
 "http://www.w3.org/Graphics/SVG/1.1/DTD/svg11.dtd">
<!-- Generated by graphviz version 14.1.1 (20251213.1925)
 -->
<!-- Title: ContractCoverage Pages: 1 -->
<svg width="816pt" height="749pt"
 viewBox="48.00 48.00 768.00 701.00" xmlns="http://www.w3.org/2000/svg" xmlns:xlink="http://www.w3.org/1999/xlink">
<g id="graph0" class="graph" transform="scale(0.666898 0.666898) rotate(0) translate(75.98 1047.22)">
<title>ContractCoverage</title>
<polygon fill="white" stroke="none" points="-4,4 -4,-975.25 1075.62,-975.25 1075.62,4 -4,4"/>
<text xml:space="preserve" text-anchor="middle" x="535.81" y="-957.75" font-family="Times New Roman,serif" font-size="10.00">simple_process &#45; Contract Coverage</text>
<g id="clust1" class="cluster">
<title>cluster_SIMPLE_ASYNC_PROCESS</title>
<polygon fill="white" stroke="black" points="155.31,-186 155.31,-648.5 593.69,-648.5 593.69,-186 155.31,-186"/>
<text xml:space="preserve" text-anchor="middle" x="374.5" y="-631.2" font-family="Times New Roman,serif" font-size="14.00">SIMPLE_ASYNC_PROCESS</text>
</g>
<g id="clust2" class="cluster">
<title>cluster_SIMPLE_PROCESS</title>
<polygon fill="white" stroke="black" points="651.38,-155 651.38,-581.5 1071.62,-581.5 1071.62,-155 651.38,-155"/>
<text xml:space="preserve" text-anchor="middle" x="861.5" y="-564.2" font-family="Times New Roman,serif" font-size="14.00">SIMPLE_PROCESS</text>
</g>
<g id="clust3" class="cluster">
<title>cluster_SIMPLE_PROCESS_HELPER</title>
<polygon fill="white" stroke="black" points="62,-744.5 62,-952 291,-952 291,-744.5 62,-744.5"/>
<text xml:space="preserve" text-anchor="middle" x="176.5" y="-934.7" font-family="Times New Roman,serif" font-size="14.00">SIMPLE_PROCESS_HELPER</text>
</g>
<g id="clust4" class="cluster">
<title>cluster_LIB_TESTS</title>
<polygon fill="white" stroke="black" points="0,-62 0,-122.5 121,-122.5 121,-62 0,-62"/>
<text xml:space="preserve" text-anchor="middle" x="60.5" y="-105.2" font-family="Times New Roman,serif" font-size="14.00">LIB_TESTS</text>
</g>
<g id="clust5" class="cluster">
<title>cluster_TEST_APP</title>
<polygon fill="white" stroke="black" points="651.5,-651 651.5,-909.5 885.5,-909.5 885.5,-651 651.5,-651"/>
<text xml:space="preserve" text-anchor="middle" x="768.5" y="-892.2" font-family="Times New Roman,serif" font-size="14.00">TEST_APP</text>
</g>
<g id="clust6" class="cluster">
<title>cluster_TEST_SIMPLE_PROCESS</title>
<polygon fill="white" stroke="black" points="371.62,0 371.62,-116.5 545.38,-116.5 545.38,0 371.62,0"/>
<text xml:space="preserve" text-anchor="middle" x="458.5" y="-99.2" font-family="Times New Roman,serif" font-size="14.00">TEST_SIMPLE_PROCESS</text>
</g>
<g id="clust7" class="cluster">
<title>cluster_legend</title>
<polygon fill="lightyellow" stroke="black" points="372.13,-713.12 372.13,-901.38 584.88,-901.38 584.88,-713.12 372.13,-713.12"/>
<text xml:space="preserve" text-anchor="middle" x="478.5" y="-887.88" font-family="Times New Roman,serif" font-size="10.00">Legend</text>
</g>
<!-- SIMPLE_ASYNC_PROCESS_make -->
<g id="node1" class="node">
<title>SIMPLE_ASYNC_PROCESS_make</title>
<polygon fill="khaki" stroke="black" points="473.56,-624 419.56,-624 419.56,-588 473.56,-588 473.56,-624"/>
<text xml:space="preserve" text-anchor="middle" x="446.56" y="-602.13" font-family="Times New Roman,serif" font-size="10.00">make</text>
</g>
<!-- SIMPLE_ASYNC_PROCESS_process_id -->
<g id="node2" class="node">
<title>SIMPLE_ASYNC_PROCESS_process_id</title>
<polygon fill="lightgray" stroke="black" points="346.31,-276 286.81,-276 286.81,-240 346.31,-240 346.31,-276"/>
<text xml:space="preserve" text-anchor="middle" x="316.56" y="-254.13" font-family="Times New Roman,serif" font-size="10.00">process_id</text>
</g>
<!-- SIMPLE_ASYNC_PROCESS_started -->
<g id="node3" class="node">
<title>SIMPLE_ASYNC_PROCESS_started</title>
<polygon fill="lightgray" stroke="black" points="425.56,-228 371.56,-228 371.56,-192 425.56,-192 425.56,-228"/>
<text xml:space="preserve" text-anchor="middle" x="398.56" y="-206.13" font-family="Times New Roman,serif" font-size="10.00">started</text>
</g>
<!-- SIMPLE_ASYNC_PROCESS_exit_code -->
<g id="node4" class="node">
<title>SIMPLE_ASYNC_PROCESS_exit_code</title>
<polygon fill="lightgray" stroke="black" points="211.81,-606 155.31,-606 155.31,-570 211.81,-570 211.81,-606"/>
<text xml:space="preserve" text-anchor="middle" x="183.56" y="-584.13" font-family="Times New Roman,serif" font-size="10.00">exit_code</text>
</g>
<!-- SIMPLE_ASYNC_PROCESS_last_error -->
<g id="node5" class="node">
<title>SIMPLE_ASYNC_PROCESS_last_error</title>
<polygon fill="lightgray" stroke="black" points="593.69,-342 539.44,-342 539.44,-306 593.69,-306 593.69,-342"/>
<text xml:space="preserve" text-anchor="middle" x="566.56" y="-320.12" font-family="Times New Roman,serif" font-size="10.00">last_error</text>
</g>
<!-- SIMPLE_ASYNC_PROCESS_accumulated_output -->
<g id="node6" class="node">
<title>SIMPLE_ASYNC_PROCESS_accumulated_output</title>
<polygon fill="lightgray" stroke="black" points="357.56,-504 257.56,-504 257.56,-468 357.56,-468 357.56,-504"/>
<text xml:space="preserve" text-anchor="middle" x="307.56" y="-482.13" font-family="Times New Roman,serif" font-size="10.00">accumulated_output</text>
</g>
<!-- SIMPLE_ASYNC_PROCESS_elapsed_seconds -->
<g id="node7" class="node">
<title>SIMPLE_ASYNC_PROCESS_elapsed_seconds</title>
<polygon fill="lightcoral" stroke="black" points="563.69,-282 479.44,-282 479.44,-246 563.69,-246 563.69,-282"/>
<text xml:space="preserve" text-anchor="middle" x="521.56" y="-260.12" font-family="Times New Roman,serif" font-size="10.00">elapsed_seconds</text>
</g>
<!-- SIMPLE_ASYNC_PROCESS_is_started -->
<g id="node8" class="node">
<title>SIMPLE_ASYNC_PROCESS_is_started</title>
<polygon fill="khaki" stroke="black" points="234.06,-384 179.06,-384 179.06,-348 234.06,-348 234.06,-384"/>
<text xml:space="preserve" text-anchor="middle" x="206.56" y="-362.13" font-family="Times New Roman,serif" font-size="10.00">is_started</text>
</g>
<!-- SIMPLE_ASYNC_PROCESS_is_running -->
<g id="node9" class="node">
<title>SIMPLE_ASYNC_PROCESS_is_running</title>
<polygon fill="lightcoral" stroke="black" points="569.69,-408 509.44,-408 509.44,-372 569.69,-372 569.69,-408"/>
<text xml:space="preserve" text-anchor="middle" x="539.56" y="-386.12" font-family="Times New Roman,serif" font-size="10.00">is_running</text>
</g>
<!-- SIMPLE_ASYNC_PROCESS_has_finished -->
<g id="node10" class="node">
<title>SIMPLE_ASYNC_PROCESS_has_finished</title>
<polygon fill="khaki" stroke="black" points="564.44,-576 496.69,-576 496.69,-540 564.44,-540 564.44,-576"/>
<text xml:space="preserve" text-anchor="middle" x="530.56" y="-554.13" font-family="Times New Roman,serif" font-size="10.00">has_finished</text>
</g>
<!-- SIMPLE_ASYNC_PROCESS_was_started_successfully -->
<g id="node11" class="node">
<title>SIMPLE_ASYNC_PROCESS_was_started_successfully</title>
<polygon fill="lightcoral" stroke="black" points="393.94,-396 275.19,-396 275.19,-360 393.94,-360 393.94,-396"/>
<text xml:space="preserve" text-anchor="middle" x="334.56" y="-374.12" font-family="Times New Roman,serif" font-size="10.00">was_started_successfully</text>
</g>
<!-- SIMPLE_ASYNC_PROCESS_show_window -->
<g id="node12" class="node">
<title>SIMPLE_ASYNC_PROCESS_show_window</title>
<polygon fill="lightgray" stroke="black" points="309.94,-564 233.19,-564 233.19,-528 309.94,-528 309.94,-564"/>
<text xml:space="preserve" text-anchor="middle" x="271.56" y="-542.12" font-family="Times New Roman,serif" font-size="10.00">show_window</text>
</g>
<!-- SIMPLE_ASYNC_PROCESS_set_show_window -->
<g id="node13" class="node">
<title>SIMPLE_ASYNC_PROCESS_set_show_window</title>
<polygon fill="palegreen" stroke="black" points="530.19,-516 436.94,-516 436.94,-480 530.19,-480 530.19,-516"/>
<text xml:space="preserve" text-anchor="middle" x="483.56" y="-494.12" font-family="Times New Roman,serif" font-size="10.00">set_show_window</text>
</g>
<!-- SIMPLE_ASYNC_PROCESS_start -->
<g id="node14" class="node">
<title>SIMPLE_ASYNC_PROCESS_start</title>
<polygon fill="lightgray" stroke="black" points="233.56,-504 179.56,-504 179.56,-468 233.56,-468 233.56,-504"/>
<text xml:space="preserve" text-anchor="middle" x="206.56" y="-482.13" font-family="Times New Roman,serif" font-size="10.00">start</text>
</g>
<!-- SIMPLE_ASYNC_PROCESS_command_not_empty -->
<g id="node15" class="node">
<title>SIMPLE_ASYNC_PROCESS_command_not_empty</title>
<polygon fill="lightgray" stroke="black" points="518.19,-348 412.94,-348 412.94,-312 518.19,-312 518.19,-348"/>
<text xml:space="preserve" text-anchor="middle" x="465.56" y="-326.13" font-family="Times New Roman,serif" font-size="10.00">command_not_empty</text>
</g>
<!-- SIMPLE_ASYNC_PROCESS_a_command -->
<g id="node16" class="node">
<title>SIMPLE_ASYNC_PROCESS_a_command</title>
<polygon fill="lightgray" stroke="black" points="262.31,-276 196.81,-276 196.81,-240 262.31,-240 262.31,-276"/>
<text xml:space="preserve" text-anchor="middle" x="229.56" y="-254.13" font-family="Times New Roman,serif" font-size="10.00">a_command</text>
</g>
<!-- SIMPLE_ASYNC_PROCESS_is_empty -->
<g id="node17" class="node">
<title>SIMPLE_ASYNC_PROCESS_is_empty</title>
<polygon fill="lightgray" stroke="black" points="581.56,-222 527.56,-222 527.56,-186 581.56,-186 581.56,-222"/>
<text xml:space="preserve" text-anchor="middle" x="554.56" y="-200.13" font-family="Times New Roman,serif" font-size="10.00">is_empty</text>
</g>
<!-- SIMPLE_ASYNC_PROCESS_not_started -->
<g id="node18" class="node">
<title>SIMPLE_ASYNC_PROCESS_not_started</title>
<polygon fill="lightgray" stroke="black" points="252.44,-444 190.69,-444 190.69,-408 252.44,-408 252.44,-444"/>
<text xml:space="preserve" text-anchor="middle" x="221.56" y="-422.12" font-family="Times New Roman,serif" font-size="10.00">not_started</text>
</g>
<!-- SIMPLE_ASYNC_PROCESS_start_in_directory -->
<g id="node19" class="node">
<title>SIMPLE_ASYNC_PROCESS_start_in_directory</title>
<polygon fill="lightgray" stroke="black" points="459.94,-288 371.19,-288 371.19,-252 459.94,-252 459.94,-288"/>
<text xml:space="preserve" text-anchor="middle" x="415.56" y="-266.13" font-family="Times New Roman,serif" font-size="10.00">start_in_directory</text>
</g>
<!-- SIMPLE_ASYNC_PROCESS_read_available_output -->
<g id="node20" class="node">
<title>SIMPLE_ASYNC_PROCESS_read_available_output</title>
<polygon fill="lightgray" stroke="black" points="485.69,-456 377.44,-456 377.44,-420 485.69,-420 485.69,-456"/>
<text xml:space="preserve" text-anchor="middle" x="431.56" y="-434.13" font-family="Times New Roman,serif" font-size="10.00">read_available_output</text>
</g>
<!-- SIMPLE_ASYNC_PROCESS_wait -->
<g id="node21" class="node">
<title>SIMPLE_ASYNC_PROCESS_wait</title>
<polygon fill="lightgray" stroke="black" points="503.56,-222 449.56,-222 449.56,-186 503.56,-186 503.56,-222"/>
<text xml:space="preserve" text-anchor="middle" x="476.56" y="-200.13" font-family="Times New Roman,serif" font-size="10.00">wait</text>
</g>
<!-- SIMPLE_ASYNC_PROCESS_positive_timeout -->
<g id="node22" class="node">
<title>SIMPLE_ASYNC_PROCESS_positive_timeout</title>
<polygon fill="lightgray" stroke="black" points="414.44,-564 328.69,-564 328.69,-528 414.44,-528 414.44,-564"/>
<text xml:space="preserve" text-anchor="middle" x="371.56" y="-542.12" font-family="Times New Roman,serif" font-size="10.00">positive_timeout</text>
</g>
<!-- SIMPLE_ASYNC_PROCESS_c_sp_wait_timeout -->
<g id="node23" class="node">
<title>SIMPLE_ASYNC_PROCESS_c_sp_wait_timeout</title>
<polygon fill="lightgray" stroke="black" points="351.94,-336 257.19,-336 257.19,-300 351.94,-300 351.94,-336"/>
<text xml:space="preserve" text-anchor="middle" x="304.56" y="-314.12" font-family="Times New Roman,serif" font-size="10.00">c_sp_wait_timeout</text>
</g>
<!-- SIMPLE_PROCESS_make -->
<g id="node24" class="node">
<title>SIMPLE_PROCESS_make</title>
<polygon fill="khaki" stroke="black" points="1071.62,-431 1017.62,-431 1017.62,-395 1071.62,-395 1071.62,-431"/>
<text xml:space="preserve" text-anchor="middle" x="1044.62" y="-409.13" font-family="Times New Roman,serif" font-size="10.00">make</text>
</g>
<!-- SIMPLE_PROCESS_last_output -->
<g id="node25" class="node">
<title>SIMPLE_PROCESS_last_output</title>
<polygon fill="lightgray" stroke="black" points="1043.88,-539 981.38,-539 981.38,-503 1043.88,-503 1043.88,-539"/>
<text xml:space="preserve" text-anchor="middle" x="1012.62" y="-517.13" font-family="Times New Roman,serif" font-size="10.00">last_output</text>
</g>
<!-- SIMPLE_PROCESS_output -->
<g id="node26" class="node">
<title>SIMPLE_PROCESS_output</title>
<polygon fill="lightgray" stroke="black" points="975.62,-191 921.62,-191 921.62,-155 975.62,-155 975.62,-191"/>
<text xml:space="preserve" text-anchor="middle" x="948.62" y="-169.13" font-family="Times New Roman,serif" font-size="10.00">output</text>
</g>
<!-- SIMPLE_PROCESS_stdout -->
<g id="node27" class="node">
<title>SIMPLE_PROCESS_stdout</title>
<polygon fill="lightgray" stroke="black" points="897.62,-191 843.62,-191 843.62,-155 897.62,-155 897.62,-191"/>
<text xml:space="preserve" text-anchor="middle" x="870.62" y="-169.13" font-family="Times New Roman,serif" font-size="10.00">stdout</text>
</g>
<!-- SIMPLE_PROCESS_result_text -->
<g id="node28" class="node">
<title>SIMPLE_PROCESS_result_text</title>
<polygon fill="lightgray" stroke="black" points="740.38,-239 680.88,-239 680.88,-203 740.38,-203 740.38,-239"/>
<text xml:space="preserve" text-anchor="middle" x="710.62" y="-217.13" font-family="Times New Roman,serif" font-size="10.00">result_text</text>
</g>
<!-- SIMPLE_PROCESS_captured_output -->
<g id="node29" class="node">
<title>SIMPLE_PROCESS_captured_output</title>
<polygon fill="lightgray" stroke="black" points="980.37,-311 896.87,-311 896.87,-275 980.37,-275 980.37,-311"/>
<text xml:space="preserve" text-anchor="middle" x="938.62" y="-289.12" font-family="Times New Roman,serif" font-size="10.00">captured_output</text>
</g>
<!-- SIMPLE_PROCESS_last_exit_code -->
<g id="node30" class="node">
<title>SIMPLE_PROCESS_last_exit_code</title>
<polygon fill="lightgray" stroke="black" points="919.62,-251 843.62,-251 843.62,-215 919.62,-215 919.62,-251"/>
<text xml:space="preserve" text-anchor="middle" x="881.62" y="-229.13" font-family="Times New Roman,serif" font-size="10.00">last_exit_code</text>
</g>
<!-- SIMPLE_PROCESS_exit_code -->
<g id="node31" class="node">
<title>SIMPLE_PROCESS_exit_code</title>
<polygon fill="lightgray" stroke="black" points="707.88,-557 651.38,-557 651.38,-521 707.88,-521 707.88,-557"/>
<text xml:space="preserve" text-anchor="middle" x="679.62" y="-535.13" font-family="Times New Roman,serif" font-size="10.00">exit_code</text>
</g>
<!-- SIMPLE_PROCESS_return_code -->
<g id="node32" class="node">
<title>SIMPLE_PROCESS_return_code</title>
<polygon fill="lightgray" stroke="black" points="746,-395 681.25,-395 681.25,-359 746,-359 746,-395"/>
<text xml:space="preserve" text-anchor="middle" x="713.62" y="-373.13" font-family="Times New Roman,serif" font-size="10.00">return_code</text>
</g>
<!-- SIMPLE_PROCESS_status_code -->
<g id="node33" class="node">
<title>SIMPLE_PROCESS_status_code</title>
<polygon fill="lightgray" stroke="black" points="1039.62,-371 975.62,-371 975.62,-335 1039.62,-335 1039.62,-371"/>
<text xml:space="preserve" text-anchor="middle" x="1007.62" y="-349.13" font-family="Times New Roman,serif" font-size="10.00">status_code</text>
</g>
<!-- SIMPLE_PROCESS_last_error -->
<g id="node34" class="node">
<title>SIMPLE_PROCESS_last_error</title>
<polygon fill="lightgray" stroke="black" points="1053.75,-191 999.5,-191 999.5,-155 1053.75,-155 1053.75,-191"/>
<text xml:space="preserve" text-anchor="middle" x="1026.62" y="-169.13" font-family="Times New Roman,serif" font-size="10.00">last_error</text>
</g>
<!-- SIMPLE_PROCESS_error_message -->
<g id="node35" class="node">
<title>SIMPLE_PROCESS_error_message</title>
<polygon fill="lightgray" stroke="black" points="802.5,-515 728.75,-515 728.75,-479 802.5,-479 802.5,-515"/>
<text xml:space="preserve" text-anchor="middle" x="765.62" y="-493.13" font-family="Times New Roman,serif" font-size="10.00">error_message</text>
</g>
<!-- SIMPLE_PROCESS_stderr -->
<g id="node36" class="node">
<title>SIMPLE_PROCESS_stderr</title>
<polygon fill="lightgray" stroke="black" points="1059.62,-311 1005.62,-311 1005.62,-275 1059.62,-275 1059.62,-311"/>
<text xml:space="preserve" text-anchor="middle" x="1032.62" y="-289.12" font-family="Times New Roman,serif" font-size="10.00">stderr</text>
</g>
<!-- SIMPLE_PROCESS_failure_reason -->
<g id="node37" class="node">
<title>SIMPLE_PROCESS_failure_reason</title>
<polygon fill="lightgray" stroke="black" points="898.5,-515 824.75,-515 824.75,-479 898.5,-479 898.5,-515"/>
<text xml:space="preserve" text-anchor="middle" x="861.62" y="-493.13" font-family="Times New Roman,serif" font-size="10.00">failure_reason</text>
</g>
<!-- SIMPLE_PROCESS_was_successful -->
<g id="node38" class="node">
<title>SIMPLE_PROCESS_was_successful</title>
<polygon fill="lightgray" stroke="black" points="819.75,-299 741.5,-299 741.5,-263 819.75,-263 819.75,-299"/>
<text xml:space="preserve" text-anchor="middle" x="780.62" y="-277.13" font-family="Times New Roman,serif" font-size="10.00">was_successful</text>
</g>
<!-- SIMPLE_PROCESS_succeeded -->
<g id="node39" class="node">
<title>SIMPLE_PROCESS_succeeded</title>
<polygon fill="lightgray" stroke="black" points="823.62,-239 765.62,-239 765.62,-203 823.62,-203 823.62,-239"/>
<text xml:space="preserve" text-anchor="middle" x="794.62" y="-217.13" font-family="Times New Roman,serif" font-size="10.00">succeeded</text>
</g>
<!-- SIMPLE_PROCESS_ok -->
<g id="node40" class="node">
<title>SIMPLE_PROCESS_ok</title>
<polygon fill="lightgray" stroke="black" points="729.62,-455 675.62,-455 675.62,-419 729.62,-419 729.62,-455"/>
<text xml:space="preserve" text-anchor="middle" x="702.62" y="-433.12" font-family="Times New Roman,serif" font-size="10.00">ok</text>
</g>
<!-- SIMPLE_PROCESS_passed -->
<g id="node41" class="node">
<title>SIMPLE_PROCESS_passed</title>
<polygon fill="lightgray" stroke="black" points="717.62,-335 663.62,-335 663.62,-299 717.62,-299 717.62,-335"/>
<text xml:space="preserve" text-anchor="middle" x="690.62" y="-313.13" font-family="Times New Roman,serif" font-size="10.00">passed</text>
</g>
<!-- SIMPLE_PROCESS_completed_ok -->
<g id="node42" class="node">
<title>SIMPLE_PROCESS_completed_ok</title>
<polygon fill="lightgray" stroke="black" points="1013.88,-251 939.38,-251 939.38,-215 1013.88,-215 1013.88,-251"/>
<text xml:space="preserve" text-anchor="middle" x="976.62" y="-229.13" font-family="Times New Roman,serif" font-size="10.00">completed_ok</text>
</g>
<!-- SIMPLE_PROCESS_show_window -->
<g id="node43" class="node">
<title>SIMPLE_PROCESS_show_window</title>
<polygon fill="lightgray" stroke="black" points="998,-479 921.25,-479 921.25,-443 998,-443 998,-479"/>
<text xml:space="preserve" text-anchor="middle" x="959.62" y="-457.13" font-family="Times New Roman,serif" font-size="10.00">show_window</text>
</g>
<!-- SIMPLE_PROCESS_set_show_window -->
<g id="node44" class="node">
<title>SIMPLE_PROCESS_set_show_window</title>
<polygon fill="khaki" stroke="black" points="954.25,-419 861,-419 861,-383 954.25,-383 954.25,-419"/>
<text xml:space="preserve" text-anchor="middle" x="907.62" y="-397.12" font-family="Times New Roman,serif" font-size="10.00">set_show_window</text>
</g>
<!-- SIMPLE_PROCESS_execution_count -->
<g id="node45" class="node">
<title>SIMPLE_PROCESS_execution_count</title>
<polygon fill="lightgray" stroke="black" points="838.13,-455 753.13,-455 753.13,-419 838.13,-419 838.13,-455"/>
<text xml:space="preserve" text-anchor="middle" x="795.63" y="-433.12" font-family="Times New Roman,serif" font-size="10.00">execution_count</text>
</g>
<!-- SIMPLE_PROCESS_execution_count_impl -->
<g id="node46" class="node">
<title>SIMPLE_PROCESS_execution_count_impl</title>
<polygon fill="lightgray" stroke="black" points="874.12,-359 765.12,-359 765.12,-323 874.12,-323 874.12,-359"/>
<text xml:space="preserve" text-anchor="middle" x="819.62" y="-337.13" font-family="Times New Roman,serif" font-size="10.00">execution_count_impl</text>
</g>
<!-- SIMPLE_PROCESS_HELPER_has_file_in_path -->
<g id="node47" class="node">
<title>SIMPLE_PROCESS_HELPER_has_file_in_path</title>
<polygon fill="lightgray" stroke="black" points="231.25,-780.5 146.25,-780.5 146.25,-744.5 231.25,-744.5 231.25,-780.5"/>
<text xml:space="preserve" text-anchor="middle" x="188.75" y="-758.62" font-family="Times New Roman,serif" font-size="10.00">has_file_in_path</text>
</g>
<!-- SIMPLE_PROCESS_HELPER_is_in_path -->
<g id="node48" class="node">
<title>SIMPLE_PROCESS_HELPER_is_in_path</title>
<polygon fill="lightgray" stroke="black" points="121.5,-780.5 62,-780.5 62,-744.5 121.5,-744.5 121.5,-780.5"/>
<text xml:space="preserve" text-anchor="middle" x="91.75" y="-758.62" font-family="Times New Roman,serif" font-size="10.00">is_in_path</text>
</g>
<!-- SIMPLE_PROCESS_HELPER_command_exists -->
<g id="node49" class="node">
<title>SIMPLE_PROCESS_HELPER_command_exists</title>
<polygon fill="lightgray" stroke="black" points="265.88,-892.5 181.63,-892.5 181.63,-856.5 265.88,-856.5 265.88,-892.5"/>
<text xml:space="preserve" text-anchor="middle" x="223.75" y="-870.62" font-family="Times New Roman,serif" font-size="10.00">command_exists</text>
</g>
<!-- SIMPLE_PROCESS_HELPER_has_command -->
<g id="node50" class="node">
<title>SIMPLE_PROCESS_HELPER_has_command</title>
<polygon fill="palegreen" stroke="black" points="291,-836.5 216.5,-836.5 216.5,-800.5 291,-800.5 291,-836.5"/>
<text xml:space="preserve" text-anchor="middle" x="253.75" y="-814.63" font-family="Times New Roman,serif" font-size="10.00">has_command</text>
</g>
<!-- SIMPLE_PROCESS_HELPER_execution_count -->
<g id="node51" class="node">
<title>SIMPLE_PROCESS_HELPER_execution_count</title>
<polygon fill="lightgray" stroke="black" points="161.25,-927.5 76.25,-927.5 76.25,-891.5 161.25,-891.5 161.25,-927.5"/>
<text xml:space="preserve" text-anchor="middle" x="118.75" y="-905.62" font-family="Times New Roman,serif" font-size="10.00">execution_count</text>
</g>
<!-- SIMPLE_PROCESS_HELPER_execution_count_impl -->
<g id="node52" class="node">
<title>SIMPLE_PROCESS_HELPER_execution_count_impl</title>
<polygon fill="lightgray" stroke="black" points="199.25,-836.5 90.25,-836.5 90.25,-800.5 199.25,-800.5 199.25,-836.5"/>
<text xml:space="preserve" text-anchor="middle" x="144.75" y="-814.63" font-family="Times New Roman,serif" font-size="10.00">execution_count_impl</text>
</g>
<!-- LIB_TESTS_test_output_of_command -->
<g id="node53" class="node">
<title>LIB_TESTS_test_output_of_command</title>
<polygon fill="lightgray" stroke="black" points="121,-98 0,-98 0,-62 121,-62 121,-98"/>
<text xml:space="preserve" text-anchor="middle" x="60.5" y="-76.12" font-family="Times New Roman,serif" font-size="10.00">test_output_of_command</text>
</g>
<!-- TEST_APP_make -->
<g id="node54" class="node">
<title>TEST_APP_make</title>
<polygon fill="lightcoral" stroke="black" points="807.5,-885 753.5,-885 753.5,-849 807.5,-849 807.5,-885"/>
<text xml:space="preserve" text-anchor="middle" x="780.5" y="-863.12" font-family="Times New Roman,serif" font-size="10.00">make</text>
</g>
<!-- TEST_APP_run_lib_tests -->
<g id="node55" class="node">
<title>TEST_APP_run_lib_tests</title>
<polygon fill="lightcoral" stroke="black" points="840.12,-807 770.88,-807 770.88,-771 840.12,-771 840.12,-807"/>
<text xml:space="preserve" text-anchor="middle" x="805.5" y="-785.12" font-family="Times New Roman,serif" font-size="10.00">run_lib_tests</text>
</g>
<!-- TEST_APP_run_simple_process_tests -->
<g id="node56" class="node">
<title>TEST_APP_run_simple_process_tests</title>
<polygon fill="lightcoral" stroke="black" points="789.62,-747 669.38,-747 669.38,-711 789.62,-711 789.62,-747"/>
<text xml:space="preserve" text-anchor="middle" x="729.5" y="-725.12" font-family="Times New Roman,serif" font-size="10.00">run_simple_process_tests</text>
</g>
<!-- TEST_APP_lib_tests -->
<g id="node57" class="node">
<title>TEST_APP_lib_tests</title>
<polygon fill="lightgray" stroke="black" points="867.5,-693 813.5,-693 813.5,-657 867.5,-657 867.5,-693"/>
<text xml:space="preserve" text-anchor="middle" x="840.5" y="-671.12" font-family="Times New Roman,serif" font-size="10.00">lib_tests</text>
</g>
<!-- TEST_APP_process_tests -->
<g id="node58" class="node">
<title>TEST_APP_process_tests</title>
<polygon fill="lightgray" stroke="black" points="750.12,-825 680.88,-825 680.88,-789 750.12,-789 750.12,-825"/>
<text xml:space="preserve" text-anchor="middle" x="715.5" y="-803.12" font-family="Times New Roman,serif" font-size="10.00">process_tests</text>
</g>
<!-- TEST_APP_passed -->
<g id="node59" class="node">
<title>TEST_APP_passed</title>
<polygon fill="lightgray" stroke="black" points="789.5,-687 735.5,-687 735.5,-651 789.5,-651 789.5,-687"/>
<text xml:space="preserve" text-anchor="middle" x="762.5" y="-665.12" font-family="Times New Roman,serif" font-size="10.00">passed</text>
</g>
<!-- TEST_APP_failed -->
<g id="node60" class="node">
<title>TEST_APP_failed</title>
<polygon fill="lightgray" stroke="black" points="705.5,-687 651.5,-687 651.5,-651 705.5,-651 705.5,-687"/>
<text xml:space="preserve" text-anchor="middle" x="678.5" y="-665.12" font-family="Times New Roman,serif" font-size="10.00">failed</text>
</g>
<!-- TEST_APP_run_test -->
<g id="node61" class="node">
<title>TEST_APP_run_test</title>
<polygon fill="lightcoral" stroke="black" points="885.5,-867 831.5,-867 831.5,-831 885.5,-831 885.5,-867"/>
<text xml:space="preserve" text-anchor="middle" x="858.5" y="-845.12" font-family="Times New Roman,serif" font-size="10.00">run_test</text>
</g>
<!-- TEST_SIMPLE_PROCESS_on_prepare -->
<g id="node62" class="node">
<title>TEST_SIMPLE_PROCESS_on_prepare</title>
<polygon fill="lightcoral" stroke="black" points="545.38,-92 483.62,-92 483.62,-56 545.38,-56 545.38,-92"/>
<text xml:space="preserve" text-anchor="middle" x="514.5" y="-70.12" font-family="Times New Roman,serif" font-size="10.00">on_prepare</text>
</g>
<!-- TEST_SIMPLE_PROCESS_test_output_of_command_echo -->
<g id="node63" class="node">
<title>TEST_SIMPLE_PROCESS_test_output_of_command_echo</title>
<polygon fill="lightgray" stroke="black" points="517.38,-36 371.62,-36 371.62,0 517.38,0 517.38,-36"/>
<text xml:space="preserve" text-anchor="middle" x="444.5" y="-14.12" font-family="Times New Roman,serif" font-size="10.00">test_output_of_command_echo</text>
</g>
<!-- legend_full -->
<g id="node64" class="node">
<title>legend_full</title>
<polygon fill="palegreen" stroke="black" points="574.38,-818.12 460.12,-818.12 460.12,-777.12 574.38,-777.12 574.38,-818.12"/>
<text xml:space="preserve" text-anchor="middle" x="517.25" y="-800.83" font-family="Times New Roman,serif" font-size="14.00">Full Contract</text>
<text xml:space="preserve" text-anchor="middle" x="517.25" y="-784.33" font-family="Times New Roman,serif" font-size="14.00">(require + ensure)</text>
</g>
<!-- legend_partial -->
<g id="node65" class="node">
<title>legend_partial</title>
<polygon fill="khaki" stroke="black" points="584.88,-754.12 467.62,-754.12 467.62,-713.12 584.88,-713.12 584.88,-754.12"/>
<text xml:space="preserve" text-anchor="middle" x="526.25" y="-736.83" font-family="Times New Roman,serif" font-size="14.00">Partial Contract</text>
<text xml:space="preserve" text-anchor="middle" x="526.25" y="-720.33" font-family="Times New Roman,serif" font-size="14.00">(require or ensure)</text>
</g>
<!-- legend_none -->
<g id="node66" class="node">
<title>legend_none</title>
<polygon fill="lightcoral" stroke="black" points="566.62,-876.63 483.88,-876.63 483.88,-840.63 566.62,-840.63 566.62,-876.63"/>
<text xml:space="preserve" text-anchor="middle" x="525.25" y="-853.58" font-family="Times New Roman,serif" font-size="14.00">No Contract</text>
</g>
<!-- legend_attr -->
<g id="node67" class="node">
<title>legend_attr</title>
<polygon fill="lightgray" stroke="black" points="460.63,-882.12 395.88,-882.12 395.88,-841.12 460.63,-841.12 460.63,-882.12"/>
<text xml:space="preserve" text-anchor="middle" x="428.25" y="-864.83" font-family="Times New Roman,serif" font-size="14.00">Attribute</text>
<text xml:space="preserve" text-anchor="middle" x="428.25" y="-848.33" font-family="Times New Roman,serif" font-size="14.00">(n/a)</text>
</g>
<!-- legend_stats -->
<g id="node68" class="node">
<title>legend_stats</title>
<polygon fill="white" stroke="black" points="432.38,-820.12 372.13,-820.12 372.13,-713.12 438.38,-713.12 438.38,-814.12 432.38,-820.12"/>
<polyline fill="none" stroke="black" points="432.38,-820.12 432.38,-814.12"/>
<polyline fill="none" stroke="black" points="438.38,-814.12 432.38,-814.12"/>
<text xml:space="preserve" text-anchor="middle" x="405.25" y="-802.83" font-family="Times New Roman,serif" font-size="14.00">Statistics</text>
<text xml:space="preserve" text-anchor="middle" x="405.25" y="-786.33" font-family="Times New Roman,serif" font-size="14.00">Full: 2</text>
<text xml:space="preserve" text-anchor="middle" x="405.25" y="-769.83" font-family="Times New Roman,serif" font-size="14.00">Partial: 6</text>
<text xml:space="preserve" text-anchor="middle" x="405.25" y="-753.33" font-family="Times New Roman,serif" font-size="14.00">None: 12</text>
<text xml:space="preserve" text-anchor="middle" x="405.25" y="-736.83" font-family="Times New Roman,serif" font-size="14.00">Attr: 52</text>
<text xml:space="preserve" text-anchor="middle" x="405.25" y="-720.33" font-family="Times New Roman,serif" font-size="14.00">Total: 72</text>
</g>
</g>
</svg>
