<?xml version="1.0" encoding="UTF-8" standalone="no"?>
<!DOCTYPE svg PUBLIC "-//W3C//DTD SVG 1.1//EN"
 "http://www.w3.org/Graphics/SVG/1.1/DTD/svg11.dtd">
<!-- Generated by graphviz version 14.1.1 (20251213.1925)
 -->
<!-- Title: Dependencies Pages: 1 -->
<svg width="359pt" height="357pt"
 viewBox="0.00 0.00 359.00 357.00" xmlns="http://www.w3.org/2000/svg" xmlns:xlink="http://www.w3.org/1999/xlink">
<g id="graph0" class="graph" transform="scale(1 1) rotate(0) translate(4 352.5)">
<title>Dependencies</title>
<polygon fill="white" stroke="none" points="-4,4 -4,-352.5 354.75,-352.5 354.75,4 -4,4"/>
<text xml:space="preserve" text-anchor="middle" x="175.38" y="-7.2" font-family="Times New Roman,serif" font-size="14.00">simple_process &#45; Dependencies</text>
<!-- simple_process -->
<g id="node1" class="node">
<title>simple_process</title>
<polygon fill="lightblue" stroke="black" points="100,-204.5 0,-204.5 0,-168.5 100,-168.5 100,-204.5"/>
<text xml:space="preserve" text-anchor="middle" x="50" y="-181.45" font-family="Times New Roman,serif" font-size="14.00">simple_process</text>
</g>
<!-- simple_datetime -->
<g id="node2" class="node">
<title>simple_datetime</title>
<polygon fill="lightblue" stroke="black" points="350.75,-348.5 244,-348.5 244,-312.5 350.75,-312.5 350.75,-348.5"/>
<text xml:space="preserve" text-anchor="middle" x="297.38" y="-325.45" font-family="Times New Roman,serif" font-size="14.00">simple_datetime</text>
</g>
<!-- simple_process&#45;&gt;simple_datetime -->
<g id="edge1" class="edge">
<title>simple_process&#45;&gt;simple_datetime</title>
<path fill="none" stroke="black" stroke-dasharray="5,2" d="M33.75,-204.74C33.75,-243.49 33.75,-330.5 33.75,-330.5 33.75,-330.5 232.2,-330.5 232.2,-330.5"/>
<polygon fill="black" stroke="black" points="232.2,-334 242.2,-330.5 232.2,-327 232.2,-334"/>
</g>
<!-- simple_mml -->
<g id="node3" class="node">
<title>simple_mml</title>
<polygon fill="lightblue" stroke="black" points="340.25,-276.5 254.5,-276.5 254.5,-240.5 340.25,-240.5 340.25,-276.5"/>
<text xml:space="preserve" text-anchor="middle" x="297.38" y="-253.45" font-family="Times New Roman,serif" font-size="14.00">simple_mml</text>
</g>
<!-- simple_process&#45;&gt;simple_mml -->
<g id="edge2" class="edge">
<title>simple_process&#45;&gt;simple_mml</title>
<path fill="none" stroke="black" stroke-dasharray="5,2" d="M66.75,-204.67C66.75,-226 66.75,-258.5 66.75,-258.5 66.75,-258.5 242.75,-258.5 242.75,-258.5"/>
<polygon fill="black" stroke="black" points="242.75,-262 252.75,-258.5 242.75,-255 242.75,-262"/>
</g>
<!-- simple_testing -->
<g id="node4" class="node">
<title>simple_testing</title>
<polygon fill="lightblue" stroke="black" points="345.12,-204.5 249.62,-204.5 249.62,-168.5 345.12,-168.5 345.12,-204.5"/>
<text xml:space="preserve" text-anchor="middle" x="297.38" y="-181.45" font-family="Times New Roman,serif" font-size="14.00">simple_testing</text>
</g>
<!-- simple_process&#45;&gt;simple_testing -->
<g id="edge3" class="edge">
<title>simple_process&#45;&gt;simple_testing</title>
<path fill="none" stroke="black" stroke-dasharray="5,2" d="M100.36,-186.5C100.36,-186.5 237.68,-186.5 237.68,-186.5"/>
<polygon fill="black" stroke="black" points="237.68,-190 247.68,-186.5 237.68,-183 237.68,-190"/>
</g>
<!-- base -->
<g id="node5" class="node">
<title>base</title>
<polygon fill="lightgray" stroke="black" points="324.38,-132.5 270.38,-132.5 270.38,-96.5 324.38,-96.5 324.38,-132.5"/>
<text xml:space="preserve" text-anchor="middle" x="297.38" y="-109.45" font-family="Times New Roman,serif" font-size="14.00">base</text>
</g>
<!-- simple_process&#45;&gt;base -->
<g id="edge4" class="edge">
<title>simple_process&#45;&gt;base</title>
<path fill="none" stroke="black" stroke-dasharray="5,2" d="M66.75,-168.33C66.75,-147 66.75,-114.5 66.75,-114.5 66.75,-114.5 258.5,-114.5 258.5,-114.5"/>
<polygon fill="black" stroke="black" points="258.5,-118 268.5,-114.5 258.5,-111 258.5,-118"/>
</g>
<!-- testing -->
<g id="node6" class="node">
<title>testing</title>
<polygon fill="lightgray" stroke="black" points="324.38,-60.5 270.38,-60.5 270.38,-24.5 324.38,-24.5 324.38,-60.5"/>
<text xml:space="preserve" text-anchor="middle" x="297.38" y="-37.45" font-family="Times New Roman,serif" font-size="14.00">testing</text>
</g>
<!-- simple_process&#45;&gt;testing -->
<g id="edge5" class="edge">
<title>simple_process&#45;&gt;testing</title>
<path fill="none" stroke="black" stroke-dasharray="5,2" d="M33.75,-168.26C33.75,-129.51 33.75,-42.5 33.75,-42.5 33.75,-42.5 258.64,-42.5 258.64,-42.5"/>
<polygon fill="black" stroke="black" points="258.64,-46 268.64,-42.5 258.64,-39 258.64,-46"/>
</g>
</g>
</svg>
